<?xml version="1.0" standalone="no"?>
<!DOCTYPE svg PUBLIC "-//W3C//DTD SVG 20010904//EN"
 "http://www.w3.org/TR/2001/REC-SVG-20010904/DTD/svg10.dtd">
<svg version="1.0" xmlns="http://www.w3.org/2000/svg"
 width="164.000000pt" height="164.000000pt" viewBox="0 0 164.000000 164.000000"
 preserveAspectRatio="xMidYMid meet">
<metadata>
Created by potrace 1.11, written by Peter Selinger 2001-2013
</metadata>
<g transform="translate(0.000000,164.000000) scale(0.100000,-0.100000)"
fill="#000000" stroke="none">
<path d="M698 1275 c-2 -2 -34 -5 -73 -8 -38 -3 -92 -11 -120 -16 -27 -6 -61
-12 -75 -15 -14 -2 -59 -15 -101 -29 -258 -87 -333 -217 -194 -339 18 -16 120
-70 170 -90 28 -11 172 -46 220 -53 133 -20 363 -26 506 -13 96 9 242 41 322
70 170 62 256 154 227 242 -37 114 -232 201 -540 242 -45 6 -337 13 -342 9z"/>
<path d="M20 535 c0 -27 3 -45 7 -41 7 7 5 77 -2 85 -3 2 -5 -17 -5 -44z"/>
<path d="M50 535 c0 -25 5 -45 10 -45 6 0 8 11 4 25 -3 14 -2 25 3 25 5 0 16
-11 23 -25 24 -44 41 -22 31 40 l-5 30 -6 -35 -5 -35 -20 33 c-26 44 -35 40
-35 -13z"/>
<path d="M142 568 c-9 -9 -6 -18 15 -40 l27 -28 -30 0 c-23 -1 -26 -2 -12 -10
40 -24 67 23 28 48 -24 14 -18 34 7 25 11 -4 14 -3 9 5 -9 15 -29 15 -44 0z"/>
<path d="M211 570 c10 -6 15 -21 14 -45 -1 -19 2 -35 6 -35 5 0 9 18 9 41 0
24 4 38 10 34 6 -3 10 -2 10 3 0 5 -15 9 -32 10 -24 0 -29 -2 -17 -8z"/>
<path d="M310 569 c0 -5 5 -7 10 -4 11 7 13 -4 10 -47 -1 -16 3 -28 9 -28 6 0
11 18 11 39 0 29 5 41 18 44 9 3 0 5 -20 6 -21 0 -38 -4 -38 -10z"/>
<path d="M390 538 c0 -47 14 -63 44 -52 17 6 25 54 15 80 -5 13 -8 5 -8 -24
-1 -36 -4 -43 -18 -40 -12 2 -18 14 -19 36 -2 51 -14 51 -14 0z"/>
<path d="M463 568 c-2 -5 1 -7 9 -6 8 2 14 -10 16 -34 2 -21 7 -38 11 -38 4 0
8 17 7 38 0 24 4 36 12 35 6 -2 12 2 12 7 0 12 -59 10 -67 -2z"/>
<path d="M590 537 c0 -33 -5 -49 -17 -56 -17 -10 -17 -10 -1 -11 23 0 36 27
32 68 -4 52 -14 51 -14 -1z"/>
<path d="M634 544 c-8 -20 -13 -41 -10 -47 3 -9 5 -8 5 1 1 19 49 15 54 -5 4
-15 5 -15 6 -2 1 18 -26 89 -35 89 -3 0 -12 -16 -20 -36z m26 -10 c0 -8 -5
-12 -10 -9 -6 4 -8 11 -5 16 9 14 15 11 15 -7z"/>
<path d="M706 572 c-5 -9 1 -83 9 -90 3 -3 5 10 5 29 l0 34 25 -30 c13 -16 25
-25 26 -20 6 33 4 75 -3 75 -4 0 -8 -12 -8 -27 l0 -28 -21 33 c-22 34 -25 36
-33 24z"/>
<path d="M790 569 c0 -5 5 -7 10 -4 11 7 14 -5 11 -47 0 -16 3 -28 9 -28 5 0
10 18 10 39 0 29 5 41 18 44 9 3 0 5 -20 6 -21 0 -38 -4 -38 -10z"/>
<path d="M870 538 c0 -47 14 -63 45 -52 10 4 15 20 15 52 0 25 -3 42 -7 38 -4
-4 -6 -23 -4 -42 2 -30 0 -35 -15 -32 -12 2 -19 15 -22 38 -6 51 -12 50 -12
-2z"/>
<path d="M950 534 c0 -25 4 -43 9 -40 4 3 7 17 6 31 -4 33 1 32 20 -5 9 -16
20 -30 25 -30 12 0 13 77 2 84 -5 3 -7 -9 -5 -27 l4 -32 -20 25 c-11 14 -21
28 -21 33 0 4 -4 7 -10 7 -5 0 -10 -21 -10 -46z"/>
<path d="M1053 572 c-6 -4 -14 -19 -18 -34 -5 -21 -2 -30 18 -42 27 -18 57
-12 57 11 0 13 -3 13 -15 3 -21 -17 -45 -5 -45 24 0 23 23 41 40 31 5 -3 11
-1 15 5 7 12 -34 13 -52 2z"/>
<path d="M1163 537 c2 -49 17 -67 17 -19 l1 27 17 -27 c24 -40 32 -35 30 20
-1 35 -2 39 -5 15 l-4 -32 -29 32 -28 31 1 -47z"/>
<path d="M1257 573 c-9 -16 -6 -82 3 -88 6 -3 10 5 10 19 0 15 7 26 18 29 16
4 16 5 0 6 -10 0 -18 8 -18 17 0 10 6 14 15 10 8 -3 15 -1 15 4 0 12 -37 14
-43 3z"/>
<path d="M1320 561 c-12 -23 -13 -41 -2 -59 10 -16 50 -24 57 -12 3 5 12 7 20
3 8 -3 15 0 15 6 0 6 7 11 16 11 13 0 14 3 5 13 -6 8 -8 17 -4 20 3 4 14 -10
24 -30 21 -47 25 -19 4 31 -18 42 -29 40 -45 -10 -10 -28 -14 -33 -26 -23 -10
8 -14 8 -14 0 0 -6 -9 -11 -21 -11 -17 0 -20 5 -17 33 2 26 7 32 26 31 12 0
22 3 22 8 0 17 -50 8 -60 -11z"/>
<path d="M1489 577 c-5 -14 -3 -80 3 -83 4 -3 8 2 8 10 0 20 16 21 24 1 6 -17
46 -21 46 -5 0 14 38 12 43 -2 2 -7 7 -10 11 -7 4 4 -1 25 -10 48 -13 32 -19
39 -30 31 -7 -6 -16 -25 -19 -41 -7 -32 -17 -36 -34 -15 -9 10 -9 16 -1 21 18
11 7 38 -17 41 -13 2 -23 3 -24 1z m35 -28 c-8 -14 -24 -10 -24 6 0 9 6 12 15
9 8 -4 12 -10 9 -15z m76 -20 c0 -5 -4 -9 -10 -9 -5 0 -10 7 -10 16 0 8 5 12
10 9 6 -3 10 -10 10 -16z"/>
<path d="M280 530 c0 -22 4 -40 9 -40 4 0 8 18 7 40 0 22 -4 40 -8 40 -5 0 -8
-18 -8 -40z"/>
<path d="M1285 490 c3 -5 8 -10 11 -10 2 0 4 5 4 10 0 6 -5 10 -11 10 -5 0 -7
-4 -4 -10z"/>
<path d="M312 405 c0 -25 2 -31 5 -16 l5 23 15 -22 c8 -12 21 -19 29 -16 7 3
16 1 19 -4 3 -5 13 -6 22 -3 15 6 14 7 -3 14 -18 7 -18 8 -1 8 24 1 16 25 -9
29 -14 2 -16 1 -5 -6 11 -8 10 -12 -5 -20 -15 -8 -23 -4 -46 21 l-28 32 2 -40z"/>
<path d="M357 433 c-10 -9 -9 -23 1 -23 5 0 9 7 9 15 0 17 -1 18 -10 8z"/>
<path d="M654 405 c0 -19 3 -35 8 -35 4 0 8 16 8 35 0 19 -3 35 -8 35 -4 0 -7
-16 -8 -35z"/>
<path d="M717 433 c-4 -3 -7 -20 -7 -37 1 -29 2 -30 15 -12 13 18 41 14 30 -5
-4 -5 -2 -9 3 -9 6 0 10 16 10 35 0 19 -4 32 -9 29 -5 -3 -7 -10 -4 -15 4 -5
-3 -9 -14 -9 -14 0 -19 5 -15 15 6 16 2 20 -9 8z"/>
<path d="M984 404 c0 -19 3 -34 7 -34 8 0 9 59 0 64 -3 3 -7 -11 -7 -30z"/>
<path d="M428 425 c-7 -7 3 -55 11 -55 8 0 7 47 -1 55 -2 3 -7 3 -10 0z"/>
<path d="M904 423 c-16 -3 -21 -11 -21 -31 0 -26 0 -27 10 -4 12 27 27 29 27
3 0 -10 7 -22 16 -25 14 -5 15 -4 5 8 -7 8 -10 24 -6 36 3 11 3 19 -2 19 -4
-1 -18 -4 -29 -6z"/>
<path d="M1119 429 c-6 -29 -4 -51 5 -58 8 -6 11 0 10 20 -1 24 -12 53 -15 38z"/>
<path d="M1168 422 c-19 -4 -26 -52 -9 -52 6 0 8 9 6 20 -2 11 0 20 6 20 5 0
9 -9 9 -19 0 -11 3 -22 8 -24 7 -5 9 50 1 56 -2 2 -12 2 -21 -1z"/>
<path d="M1270 402 c0 -17 4 -33 9 -36 10 -7 9 49 -2 60 -4 4 -7 -7 -7 -24z"/>
<path d="M490 405 c0 -8 -5 -15 -11 -15 -5 0 -7 5 -4 10 3 6 1 10 -4 10 -6 0
-11 -9 -11 -21 0 -12 5 -19 13 -16 6 2 20 0 30 -5 13 -7 19 -4 26 14 5 13 7
26 4 31 -8 13 -43 7 -43 -8z m30 -10 c0 -8 -4 -15 -10 -15 -5 0 -10 7 -10 15
0 8 5 15 10 15 6 0 10 -7 10 -15z"/>
<path d="M547 407 c-3 -8 -1 -20 4 -28 7 -11 9 -9 9 9 0 12 5 22 11 22 6 0 9
-7 6 -15 -4 -8 -2 -17 3 -20 6 -4 10 5 10 19 0 19 -5 26 -19 26 -10 0 -21 -6
-24 -13z"/>
<path d="M614 411 c18 -7 18 -8 3 -14 -23 -9 -21 -24 3 -30 17 -4 20 0 20 24
0 24 -4 29 -22 28 -21 0 -21 -1 -4 -8z"/>
<path d="M780 397 c0 -17 7 -26 23 -30 21 -6 21 -6 3 8 -18 14 -18 15 -2 15
22 0 16 24 -7 28 -12 3 -17 -4 -17 -21z"/>
<path d="M839 412 c9 -7 10 -12 2 -16 -17 -11 -13 -23 10 -29 17 -5 20 -1 17
21 -2 18 -10 28 -23 30 -15 2 -17 1 -6 -6z"/>
<path d="M1010 396 c0 -14 4 -26 10 -26 5 0 7 6 4 14 -3 8 -1 17 5 21 10 6 16
-8 12 -28 -1 -5 3 -6 8 -3 17 11 5 41 -17 44 -18 3 -22 -2 -22 -22z"/>
<path d="M1070 406 c0 -8 6 -17 13 -19 10 -4 10 -6 0 -6 -7 -1 -13 -5 -13 -11
0 -5 7 -7 15 -4 18 7 20 34 3 34 -9 0 -8 4 2 10 13 8 12 10 -2 10 -10 0 -18
-6 -18 -14z"/>
<path d="M1210 398 c0 -31 6 -37 31 -31 20 6 26 37 8 48 -6 4 -9 1 -7 -6 1 -8
-2 -15 -7 -16 -6 -2 -10 1 -10 6 0 5 -3 13 -7 17 -5 4 -8 -4 -8 -18z"/>
<path d="M1307 413 c-11 -10 -8 -43 3 -43 6 0 10 5 10 10 0 6 7 10 15 10 9 0
12 6 9 15 -6 16 -26 20 -37 8z"/>
</g>
</svg>
